<?xml version="1.0" standalone="no"?>
<!DOCTYPE svg PUBLIC "-//W3C//DTD SVG 20010904//EN"
 "http://www.w3.org/TR/2001/REC-SVG-20010904/DTD/svg10.dtd">
<svg version="1.0" xmlns="http://www.w3.org/2000/svg"
 width="1447.000000pt" height="2048.000000pt" viewBox="0 0 1447.000000 2048.000000"
 preserveAspectRatio="xMidYMid meet">
<metadata>
Created by potrace 1.16, written by Peter Selinger 2001-2019
</metadata>
<g transform="translate(0.000000,2048.000000) scale(0.100000,-0.100000)"
fill="#000000" stroke="none">
<path d="M0 10240 l0 -10240 7235 0 7235 0 0 10240 0 10240 -7235 0 -7235 0 0
-10240z m8183 5576 c-3 -17 -14 -43 -24 -58 -11 -16 -19 -44 -19 -68 0 -24
-10 -60 -25 -88 -18 -34 -25 -62 -25 -103 0 -43 -5 -60 -20 -74 -14 -13 -20
-31 -20 -63 0 -29 -8 -57 -22 -81 -20 -32 -23 -49 -23 -151 0 -105 2 -118 23
-144 12 -16 22 -37 22 -47 0 -10 9 -23 19 -29 11 -5 23 -19 26 -31 4 -11 22
-27 40 -35 19 -7 36 -23 40 -34 6 -19 19 -25 70 -32 11 -2 25 -14 32 -28 16
-33 35 -36 250 -32 l183 3 15 29 c11 21 23 30 47 32 21 2 36 11 43 23 5 12 16
27 23 35 39 45 72 108 72 139 0 21 9 44 25 63 21 25 25 40 25 97 0 54 4 70 20
84 15 12 20 29 20 66 0 33 6 56 19 73 11 14 23 49 27 79 7 54 52 168 67 169
33 1 30 -190 -4 -246 -11 -17 -19 -47 -19 -66 0 -19 -9 -61 -20 -93 -20 -59
-27 -140 -12 -149 8 -5 102 91 137 139 13 19 14 17 14 -20 0 -22 -6 -49 -14
-59 -8 -11 -15 -27 -15 -36 0 -9 -9 -25 -20 -35 -10 -9 -24 -33 -31 -52 -6
-19 -17 -47 -25 -61 -8 -15 -14 -34 -14 -43 0 -8 -11 -26 -25 -39 -14 -13 -25
-29 -25 -37 0 -7 -9 -21 -20 -30 -11 -10 -20 -24 -20 -32 0 -24 -62 -145 -82
-159 -18 -13 -26 -72 -9 -72 4 0 25 -13 46 -30 32 -26 46 -30 96 -30 34 0 62
5 68 13 44 53 61 76 61 83 0 4 10 18 21 30 13 13 23 41 26 68 3 26 13 52 24
62 11 9 19 22 19 29 0 6 11 22 25 35 14 13 25 32 25 41 0 31 39 113 85 179 48
68 55 83 55 116 0 37 -14 51 -55 56 -19 2 -33 11 -39 24 -6 12 -30 32 -54 43
l-45 22 5 90 c4 64 10 95 22 108 10 10 21 32 25 47 4 16 16 33 27 38 12 5 25
19 30 30 17 39 176 38 191 -1 3 -7 18 -20 34 -29 16 -8 29 -19 29 -25 0 -6 10
-19 22 -29 19 -15 23 -30 26 -94 4 -67 1 -80 -22 -120 -15 -25 -50 -66 -80
-91 -51 -45 -54 -50 -71 -128 -17 -79 -33 -123 -78 -213 -11 -23 -21 -61 -21
-85 l-1 -44 40 -5 c50 -6 53 -29 5 -45 -19 -6 -39 -21 -45 -33 -5 -12 -17 -25
-27 -28 -22 -7 -113 -94 -121 -116 -3 -10 -17 -18 -29 -18 -30 0 -41 -9 -56
-43 -9 -22 -18 -27 -38 -25 -18 2 -30 -3 -38 -17 -6 -11 -21 -34 -33 -52 -13
-17 -23 -36 -23 -41 0 -12 25 -22 55 -22 14 0 30 -7 37 -15 33 -39 41 -45 64
-45 16 0 27 7 33 22 4 12 23 27 42 33 19 7 39 23 46 36 8 16 23 26 44 29 23 3
37 14 49 35 9 17 25 30 36 31 38 2 42 5 53 34 8 24 16 30 40 30 24 0 34 7 46
30 12 22 23 30 43 30 32 0 52 16 52 41 0 18 19 29 51 29 12 0 27 13 37 30 10
17 25 30 37 30 27 0 44 13 59 41 7 14 23 26 41 29 20 3 34 15 43 33 9 18 21
27 36 27 13 0 35 14 53 35 17 19 38 35 47 35 9 0 23 11 32 25 9 14 33 30 53
36 21 6 41 20 47 33 5 11 24 26 42 32 18 5 39 20 47 31 22 32 75 56 91 42 20
-17 17 -37 -17 -109 -21 -45 -29 -74 -25 -93 7 -35 -14 -80 -58 -124 -17 -17
-49 -51 -71 -77 -22 -25 -50 -48 -63 -51 -12 -3 -27 -17 -32 -30 -5 -14 -22
-30 -37 -36 -15 -5 -33 -19 -41 -30 -8 -11 -25 -24 -38 -29 -15 -6 -24 -18
-24 -30 0 -13 -12 -26 -35 -37 -19 -9 -35 -20 -35 -25 0 -4 -13 -22 -29 -40
-16 -18 -32 -48 -36 -66 -3 -18 -14 -40 -23 -49 -24 -24 -30 -276 -8 -313 9
-14 22 -39 30 -56 9 -17 22 -34 31 -37 8 -4 15 -12 15 -19 1 -22 73 -94 102
-101 17 -5 30 -17 36 -37 10 -27 15 -30 57 -30 39 0 51 -5 74 -30 23 -26 37
-31 93 -37 71 -6 138 9 138 32 0 21 33 35 79 35 35 0 43 4 56 30 10 20 26 33
45 37 17 3 30 9 30 14 0 5 16 24 35 43 19 20 35 42 35 50 0 9 12 19 28 22 29
8 94 67 105 97 4 9 18 22 33 27 15 6 43 29 63 52 53 60 75 82 96 94 18 10 18
12 0 57 -9 25 -28 53 -41 62 -32 21 -32 55 -1 55 31 0 49 -16 80 -72 20 -35
27 -60 27 -102 0 -30 -5 -58 -10 -61 -6 -3 -30 -36 -55 -73 -62 -93 -96 -129
-126 -137 -15 -4 -39 -20 -55 -36 -15 -16 -33 -29 -40 -29 -6 0 -19 -11 -27
-23 -9 -13 -29 -30 -46 -37 -17 -6 -33 -21 -36 -31 -4 -11 -16 -24 -28 -30
-55 -29 -190 -156 -184 -174 6 -20 100 -45 147 -39 105 13 120 21 146 79 14
29 31 59 39 65 8 7 15 18 15 25 0 7 7 19 17 26 9 8 22 29 30 47 14 35 27 41
37 17 7 -20 -4 -76 -19 -95 -7 -8 -16 -26 -20 -40 -4 -14 -15 -34 -25 -45 -10
-11 -21 -42 -25 -68 -5 -31 -14 -51 -25 -57 -10 -6 -22 -19 -25 -30 -8 -25
-32 -26 -40 -1 -9 28 -29 33 -158 39 l-118 5 -22 34 -22 35 -81 -6 c-52 -3
-85 -1 -92 6 -6 6 -42 23 -79 38 -37 14 -86 39 -107 53 -21 15 -43 27 -48 27
-12 0 -86 75 -123 125 -17 22 -38 49 -48 60 -10 11 -35 54 -55 95 -36 74 -37
77 -37 195 0 104 3 124 20 150 12 17 26 39 33 50 41 66 55 85 63 85 5 0 14 11
19 25 5 14 16 28 24 31 8 3 20 19 26 35 7 16 18 29 25 29 8 0 22 11 33 25 11
13 31 30 46 36 14 7 26 17 26 24 0 6 29 42 65 79 36 37 65 75 65 85 0 9 5 22
12 29 22 22 -20 25 -48 3 -15 -12 -39 -21 -54 -21 -15 0 -36 -10 -49 -24 -13
-14 -35 -30 -51 -36 -15 -6 -32 -22 -38 -34 -6 -14 -23 -26 -43 -30 -18 -3
-39 -15 -46 -26 -8 -12 -32 -28 -53 -36 -21 -9 -41 -22 -44 -30 -3 -8 -25 -23
-48 -33 -24 -10 -65 -40 -93 -66 -27 -25 -63 -53 -80 -62 -32 -17 -83 -56
-125 -96 -14 -13 -40 -29 -58 -35 -19 -6 -47 -23 -64 -37 -29 -25 -67 -32
-148 -26 -48 3 -104 64 -141 155 -16 39 -39 80 -52 91 -55 46 -95 208 -63 250
15 20 21 76 10 88 -8 8 -80 -28 -107 -54 -11 -10 -37 -21 -56 -24 -20 -4 -45
-11 -56 -17 -66 -38 -76 -40 -188 -36 -95 2 -117 6 -142 24 -16 12 -52 24 -78
28 -32 5 -59 17 -81 37 -19 16 -42 29 -52 29 -10 0 -46 29 -80 65 -46 50 -70
67 -96 71 -37 6 -84 -12 -108 -41 -16 -19 -135 -75 -159 -75 -9 0 -27 9 -41
20 -14 11 -33 20 -44 20 -10 0 -36 19 -57 42 -38 42 -39 44 -39 122 0 73 3 83
34 130 48 72 68 88 100 80 34 -8 28 -26 -12 -38 -23 -6 -33 -16 -37 -37 -4
-15 -13 -33 -21 -40 -20 -16 -18 -45 9 -109 34 -84 28 -80 132 -80 l95 0 15
33 c9 17 23 45 31 60 16 29 12 97 -5 97 -5 0 -16 17 -24 39 -13 32 -22 40 -53
45 -21 5 -33 11 -28 16 9 9 98 14 138 8 36 -5 63 51 71 149 4 48 15 108 25
133 10 25 21 68 25 95 4 28 13 60 21 72 8 12 19 46 25 75 7 29 17 62 25 73 7
11 17 39 24 62 13 52 56 83 77 56 7 -9 10 -29 6 -47z m271 -32 c14 -37 6 -195
-13 -249 -10 -29 -22 -73 -26 -97 -4 -24 -15 -61 -25 -83 -10 -22 -30 -77 -45
-123 -35 -107 -30 -160 18 -194 18 -12 41 -30 51 -40 13 -12 35 -18 65 -18 41
0 49 5 79 40 17 21 32 43 32 48 0 5 8 20 19 33 10 13 21 42 25 64 4 22 16 54
26 70 9 17 20 57 24 90 4 32 13 72 20 87 8 15 17 47 21 70 11 77 79 198 111
198 22 0 24 -31 4 -57 -16 -20 -20 -41 -20 -99 0 -64 -3 -76 -25 -100 -19 -20
-25 -38 -25 -71 0 -24 -8 -58 -17 -76 -9 -18 -20 -61 -24 -96 -5 -46 -12 -69
-27 -80 -12 -10 -22 -33 -25 -61 -3 -24 -12 -46 -19 -49 -7 -2 -27 -19 -45
-38 l-32 -33 -103 0 c-104 0 -104 0 -126 29 -12 16 -31 31 -44 33 -14 2 -24
13 -29 32 -4 15 -16 37 -26 48 -26 29 -24 116 5 153 16 20 22 41 22 80 0 39 5
56 20 70 16 14 20 31 20 80 0 50 5 68 25 95 18 25 25 46 25 80 0 34 6 52 19
64 11 10 22 38 26 67 7 49 26 66 39 33z m-906 -126 c5 -7 19 -42 30 -78 l20
-65 -21 -40 c-12 -22 -31 -44 -42 -50 -11 -5 -36 -22 -56 -37 -20 -16 -40 -28
-45 -28 -25 -1 -48 -36 -75 -111 -28 -79 -29 -93 -28 -224 2 -216 -7 -230
-159 -255 -46 -7 -118 15 -172 53 -33 23 -67 22 -80 -4 -7 -11 -26 -27 -44
-34 -18 -8 -41 -26 -50 -40 -9 -14 -25 -25 -36 -25 -11 0 -32 -13 -49 -29 -23
-22 -42 -30 -92 -35 -35 -4 -77 -13 -94 -20 -69 -29 -101 -28 -199 4 -52 17
-104 40 -116 50 -11 10 -29 16 -40 13 -28 -7 -90 -79 -96 -111 -10 -51 -217
-262 -257 -262 -4 0 -16 -19 -26 -42 -16 -38 -16 -47 -4 -88 19 -60 11 -159
-14 -177 -10 -7 -32 -26 -50 -42 -17 -16 -47 -32 -65 -36 -18 -4 -38 -11 -43
-15 -19 -16 -155 29 -155 50 0 19 -93 100 -115 100 -24 0 -62 -43 -89 -101 -9
-19 -22 -43 -29 -54 -17 -29 -160 -165 -173 -165 -6 0 -27 -13 -47 -29 -29
-23 -51 -30 -109 -36 -81 -7 -104 -17 -133 -52 -18 -21 -24 -23 -48 -14 -16 6
-39 11 -53 11 -14 0 -27 7 -31 18 -8 21 -33 41 -52 42 -8 0 -29 16 -47 35 -17
19 -41 35 -52 35 -13 0 -26 11 -34 28 -9 19 -22 28 -43 30 -21 2 -35 12 -47
32 -11 20 -25 30 -40 30 -27 0 -39 8 -54 34 -6 11 -25 25 -43 31 -18 6 -38 20
-44 30 -14 26 -27 35 -54 35 -15 0 -28 10 -38 30 -11 21 -23 30 -41 30 -17 0
-30 9 -41 28 -9 16 -29 36 -45 45 -33 19 -36 43 -7 52 41 13 88 -5 154 -61 68
-58 118 -84 160 -84 35 0 45 31 45 143 0 74 4 98 20 125 11 18 20 38 20 46 0
45 124 216 157 216 6 0 21 13 32 29 13 18 34 32 54 36 17 4 45 19 60 34 27 25
35 26 165 32 75 3 145 9 154 13 14 6 16 22 15 96 -2 77 1 92 21 119 12 16 22
36 22 42 0 21 32 49 55 49 11 0 36 11 55 25 18 14 49 28 69 31 33 7 73 35 132
96 14 15 39 30 55 34 16 4 44 20 62 36 28 24 41 28 100 29 164 4 226 -2 252
-22 34 -26 57 -35 113 -43 40 -6 48 -5 53 11 24 70 85 172 136 225 32 33 58
64 58 69 0 4 16 13 36 18 20 6 47 20 60 32 20 18 41 24 121 30 54 4 133 5 176
2 66 -5 84 -11 114 -35 20 -15 44 -28 54 -28 10 0 34 -13 52 -30 24 -21 45
-30 70 -30 42 0 48 7 77 88 13 34 26 65 30 67 11 7 20 -116 20 -288 0 -130 3
-164 17 -190 13 -24 18 -63 21 -157 4 -186 -6 -170 116 -170 85 0 105 3 110
16 3 9 6 62 6 119 0 81 -4 112 -20 146 -27 61 -27 152 0 179 13 13 20 33 20
58 0 46 14 62 56 62 22 0 36 7 47 24 11 16 28 25 58 29 55 7 69 27 69 96 0 89
13 119 38 89z m2633 -438 c27 -15 24 -24 -15 -45 -19 -11 -37 -27 -39 -37 -3
-9 -18 -23 -34 -30 -15 -7 -39 -25 -51 -40 -13 -16 -30 -28 -38 -28 -7 0 -29
-15 -48 -32 -52 -50 -96 -81 -138 -100 -21 -9 -38 -22 -38 -27 0 -6 -18 -20
-40 -31 -23 -12 -43 -27 -47 -35 -8 -22 -83 -40 -94 -23 -16 24 -15 25 56 83
21 17 50 42 67 58 16 15 40 32 51 39 29 15 79 54 127 101 22 20 46 37 54 37 8
0 21 9 29 20 7 10 34 28 60 39 26 11 47 25 47 31 0 11 34 28 58 29 7 1 22 -4
33 -9z m376 -482 c24 -36 28 -50 28 -117 0 -65 -4 -82 -25 -111 -24 -35 -77
-88 -146 -145 -19 -16 -50 -43 -69 -60 -18 -16 -67 -61 -110 -100 -42 -38 -83
-82 -91 -97 -32 -63 -26 -167 12 -199 21 -17 92 -28 142 -22 34 5 46 12 58 34
8 16 21 29 29 29 15 0 115 95 115 110 0 5 16 14 35 20 19 6 35 16 35 20 0 5
12 22 28 38 15 16 34 38 43 48 9 11 33 33 53 49 20 17 51 42 68 58 34 29 78
37 78 12 0 -8 -4 -15 -9 -15 -5 0 -14 -14 -20 -32 -6 -17 -18 -39 -26 -47 -9
-9 -25 -28 -36 -43 -11 -16 -29 -28 -40 -28 -11 0 -24 -11 -30 -24 -6 -13 -22
-30 -35 -37 -13 -6 -26 -20 -29 -30 -3 -10 -19 -21 -36 -24 -16 -4 -34 -16
-41 -28 -16 -31 -82 -94 -106 -101 -10 -4 -31 -20 -46 -36 -26 -30 -27 -30
-129 -30 -106 0 -127 7 -127 42 0 10 -6 18 -13 18 -8 0 -28 22 -45 49 -28 42
-32 58 -32 113 0 56 3 68 25 88 14 13 25 28 25 33 0 6 7 19 17 29 9 10 21 28
27 40 6 12 25 25 42 30 18 4 35 18 42 33 6 14 16 25 22 25 6 0 18 16 26 35 10
24 21 35 35 35 22 0 95 71 105 102 3 11 18 21 34 24 31 7 100 82 100 110 0 19
-40 84 -52 84 -4 0 -14 7 -22 16 -25 24 -5 52 33 46 21 -3 38 -16 58 -44z
m-6723 -544 c23 -9 10 -82 -20 -114 -19 -21 -22 -32 -17 -65 8 -51 19 -65 54
-65 19 0 41 -12 66 -35 21 -19 53 -48 71 -65 18 -16 41 -30 52 -30 10 0 28
-13 40 -30 12 -16 30 -30 40 -30 11 0 29 -13 41 -29 12 -16 34 -32 50 -35 18
-3 34 -16 43 -35 11 -20 25 -31 43 -33 17 -2 32 -13 43 -33 12 -22 24 -30 45
-30 21 -1 33 -9 45 -30 12 -22 25 -31 47 -33 25 -2 34 -10 42 -33 7 -21 18
-31 41 -36 20 -3 36 -15 42 -29 18 -40 35 -34 84 28 69 86 114 96 114 25 0
-40 -94 -137 -133 -137 -15 0 -41 -12 -58 -28 -30 -27 -32 -34 -39 -124 -7
-95 -43 -211 -76 -249 -8 -8 -14 -20 -14 -25 0 -5 -10 -21 -23 -35 -12 -15
-33 -41 -47 -60 -51 -69 -117 -117 -170 -125 -25 -3 -67 -19 -95 -34 -27 -16
-66 -31 -86 -35 -46 -9 -63 -20 -55 -36 21 -45 46 -75 72 -89 16 -9 35 -28 42
-42 6 -14 23 -29 36 -32 37 -9 77 -80 84 -148 4 -49 1 -67 -18 -106 -35 -71
-71 -111 -105 -118 -16 -3 -47 -17 -69 -31 -31 -20 -58 -27 -133 -33 -71 -6
-100 -13 -116 -27 -49 -43 -150 -82 -240 -91 l-88 -10 -56 -58 c-62 -65 -113
-139 -113 -165 0 -9 -10 -29 -22 -44 -20 -25 -22 -41 -23 -136 0 -86 3 -110
17 -125 9 -11 19 -36 23 -57 4 -20 11 -40 17 -43 5 -3 20 -23 34 -45 14 -23
32 -39 44 -39 11 0 24 -12 32 -27 11 -24 21 -29 67 -35 42 -5 59 -13 82 -37
26 -29 33 -31 94 -31 71 0 91 7 129 45 18 17 36 25 61 25 30 0 45 8 81 44 24
25 44 48 44 52 0 4 9 17 19 28 11 12 31 49 45 83 24 58 26 74 26 211 0 115 -3
153 -15 168 -17 22 -20 60 -5 69 6 3 10 1 10 -4 0 -6 5 -11 12 -11 21 0 48
-32 48 -57 0 -13 8 -38 17 -56 14 -25 18 -58 18 -148 0 -72 -4 -121 -11 -130
-7 -8 -19 -39 -28 -69 -9 -30 -29 -73 -45 -95 -17 -22 -46 -71 -66 -109 -28
-53 -35 -75 -30 -100 12 -60 16 -66 42 -66 28 0 111 -69 146 -122 50 -74 137
-272 137 -310 0 -13 7 -36 16 -53 42 -80 66 -171 71 -277 l6 -107 -39 -36
c-38 -35 -113 -65 -162 -65 -13 0 -42 -11 -65 -24 -32 -18 -62 -25 -129 -29
-75 -4 -92 -8 -117 -30 -23 -19 -47 -27 -100 -32 -45 -4 -76 -13 -88 -25 -34
-31 -61 -40 -122 -40 -40 0 -83 -8 -127 -25 -36 -14 -70 -25 -73 -25 -4 0 -28
14 -53 30 -49 32 -76 77 -121 200 -61 166 -98 341 -97 465 0 95 19 214 40 250
10 17 23 46 29 65 10 31 47 76 121 145 60 57 100 110 100 135 0 8 -28 44 -61
80 -69 74 -103 127 -118 187 -6 23 -18 54 -26 70 -20 37 -20 174 -1 211 8 15
17 46 21 67 7 37 37 93 74 138 28 34 39 84 29 131 -5 25 -8 58 -6 73 3 28 3
28 92 33 82 5 90 8 114 35 l25 30 134 2 c149 1 183 7 183 28 0 27 43 39 145
39 l99 1 32 60 c26 48 33 72 33 123 1 54 -2 65 -24 84 -14 12 -25 27 -25 33 0
7 -18 17 -39 23 -27 9 -41 19 -45 36 -4 17 -15 25 -41 30 -24 5 -38 15 -47 34
-9 19 -22 28 -43 30 -21 2 -35 12 -47 32 -15 26 -32 35 -60 31 -3 0 -18 15
-33 34 -16 21 -35 35 -48 35 -14 0 -28 11 -38 29 -11 18 -28 30 -48 34 -20 4
-34 15 -40 30 -5 12 -16 29 -25 36 -19 16 -20 35 -4 64 9 15 13 76 13 192 l0
170 37 75 c21 41 43 84 50 95 44 71 62 95 72 95 7 0 25 14 41 30 25 26 36 30
79 30 88 0 101 -31 22 -51 -32 -8 -50 -21 -77 -56 -19 -25 -44 -56 -56 -69
-12 -13 -24 -32 -27 -42 -4 -11 -15 -27 -26 -37 -15 -14 -20 -31 -20 -69 0
-29 -9 -70 -20 -95 -25 -53 -25 -53 0 -81 13 -15 20 -37 20 -64 0 -29 7 -49
25 -70 14 -16 25 -32 25 -35 0 -4 17 -26 38 -49 24 -27 47 -42 62 -42 14 0 36
-14 55 -34 l31 -34 159 -1 c88 -1 166 3 173 8 8 4 19 19 26 32 7 15 22 25 38
27 18 2 37 18 60 48 18 25 42 57 54 72 12 15 24 45 28 66 4 22 16 51 27 64 16
21 19 42 19 153 0 70 -3 134 -6 143 -8 22 -27 20 -49 -4 -13 -14 -31 -20 -60
-20 -62 0 -69 -14 -74 -142 -3 -91 -6 -110 -21 -118 -10 -5 -20 -20 -24 -34
-4 -16 -17 -28 -39 -35 -18 -6 -37 -21 -42 -33 -12 -27 -64 -35 -108 -19 -29
11 -36 38 -12 47 8 3 17 14 20 24 3 10 16 29 29 43 13 14 26 43 29 65 4 22 14
45 22 52 8 7 15 23 15 36 0 12 8 29 18 36 10 7 33 45 50 83 18 39 37 77 42 85
40 61 36 88 -13 101 -15 4 -38 17 -53 28 -32 25 -76 37 -171 46 -40 4 -73 10
-73 14 0 4 14 12 30 18 35 13 39 41 13 75 -32 41 -117 119 -147 135 -32 16
-96 75 -96 87 0 5 -8 20 -19 34 -45 64 -34 124 38 209 20 23 37 42 38 43 1 0
8 -3 17 -6z m7272 -538 l34 -34 0 -106 c0 -140 15 -174 94 -206 54 -21 126
-80 126 -102 0 -6 7 -19 16 -29 10 -11 18 -44 21 -84 5 -54 3 -69 -12 -85 -10
-11 -23 -20 -29 -20 -5 0 -23 -12 -39 -27 -26 -26 -33 -28 -106 -26 -50 2 -97
10 -128 22 -27 10 -66 21 -86 22 -32 3 -43 -2 -82 -41 -27 -27 -50 -60 -55
-82 -22 -80 -71 -168 -104 -185 -17 -9 -37 -25 -44 -35 -12 -16 -21 -18 -60
-12 -52 7 -90 35 -131 92 -25 36 -26 42 -26 178 l0 140 -35 37 c-21 22 -44 37
-58 37 -32 0 -60 16 -100 59 -36 38 -48 75 -38 116 10 41 36 27 77 -40 l36
-60 141 -3 c162 -3 166 -6 127 -80 -14 -26 -25 -51 -25 -57 0 -5 -9 -21 -20
-35 -11 -14 -20 -33 -20 -42 0 -10 -9 -27 -20 -38 -11 -11 -20 -26 -20 -32 0
-13 20 -59 66 -151 13 -26 24 -55 24 -65 0 -10 3 -22 7 -25 9 -10 33 13 33 32
0 10 11 28 25 41 14 13 25 31 25 39 0 9 9 30 20 46 11 17 20 42 20 58 0 16 10
36 25 49 14 12 25 27 25 33 0 7 9 24 20 38 11 14 20 40 20 60 0 62 18 70 139
65 97 -5 106 -7 126 -30 27 -31 85 -43 162 -33 59 7 75 24 50 53 -8 9 -18 28
-22 42 -4 14 -16 31 -26 38 -11 7 -19 21 -19 31 0 28 -19 39 -60 34 -43 -6
-106 11 -113 32 -3 7 -21 16 -39 20 -65 14 -72 37 -33 111 14 26 25 52 25 58
0 6 9 19 20 29 25 21 29 117 5 137 -17 14 -20 50 -4 50 6 0 26 -15 45 -34z
m-7046 -333 c0 -30 -7 -53 -20 -70 -11 -14 -20 -32 -20 -39 0 -7 -9 -19 -19
-26 -11 -8 -23 -27 -27 -43 -4 -17 -12 -37 -19 -45 -8 -8 -17 -32 -20 -53 -15
-79 -63 -57 -88 40 -16 64 -16 71 -1 117 10 28 33 64 54 85 20 20 42 46 48 58
9 15 23 23 50 25 56 5 62 1 62 -49z m-635 -545 c3 -7 7 -43 8 -80 3 -48 9 -73
22 -88 10 -11 23 -30 29 -43 8 -15 22 -23 44 -25 24 -2 36 -11 47 -33 12 -21
23 -29 43 -29 22 0 32 -7 45 -34 13 -28 23 -35 49 -38 23 -2 36 -10 45 -28 9
-19 23 -27 59 -32 62 -9 74 -22 46 -51 -12 -13 -22 -29 -22 -35 0 -16 -25 -15
-50 0 -17 11 -27 9 -63 -11 -40 -22 -51 -23 -184 -20 -94 3 -146 8 -154 16
-10 10 -6 15 15 23 15 5 41 10 57 10 17 0 43 7 59 15 25 13 30 22 30 50 0 28
-9 44 -47 83 -27 27 -60 56 -75 65 -27 17 -68 107 -68 150 0 33 40 147 51 147
5 0 12 -6 14 -12z m7832 -278 c20 -16 41 -20 93 -20 63 0 71 -3 109 -34 23
-19 49 -38 59 -41 23 -8 94 -97 106 -132 5 -15 15 -35 22 -44 8 -9 20 -64 28
-123 8 -59 20 -114 28 -123 18 -22 71 -43 108 -43 16 0 30 -4 30 -10 0 -5 -13
-10 -29 -10 -23 0 -32 -7 -42 -29 -10 -23 -24 -32 -56 -40 -55 -14 -106 -14
-121 1 -19 19 -14 72 8 101 15 19 20 40 20 84 0 39 -7 70 -20 96 -11 20 -20
43 -20 50 0 7 -10 27 -22 44 -13 16 -32 43 -43 58 -34 48 -63 75 -82 75 -10 0
-26 14 -35 30 l-17 30 -161 0 -160 0 -32 -30 c-17 -17 -43 -33 -57 -37 -40 -9
-103 -71 -133 -130 -23 -46 -26 -65 -28 -165 -3 -185 -3 -186 29 -216 17 -15
37 -44 46 -65 15 -37 15 -39 -10 -68 -22 -27 -25 -39 -25 -115 0 -48 -4 -84
-10 -84 -30 0 -80 145 -80 234 0 42 -7 84 -20 116 -16 41 -20 74 -20 171 0
100 3 126 20 159 11 22 20 46 20 53 0 8 7 21 17 28 9 8 22 29 30 47 7 17 18
32 23 32 5 0 16 13 25 29 9 19 25 32 46 36 18 4 42 19 54 33 16 19 36 27 85
34 35 4 73 15 85 23 30 21 102 19 132 -5z m-7917 -296 c0 -9 -9 -27 -20 -41
-13 -17 -20 -42 -21 -72 0 -45 -43 -142 -64 -145 -27 -4 -27 115 0 159 7 11
15 35 19 54 8 46 23 61 57 61 20 0 29 -5 29 -16z m7960 -19 c12 -22 24 -30 44
-30 28 0 56 -27 56 -54 0 -8 7 -22 16 -32 9 -10 18 -37 21 -61 4 -35 -1 -55
-27 -103 -26 -51 -36 -61 -63 -65 -22 -3 -36 -13 -45 -32 -13 -27 -16 -28 -86
-28 -67 0 -75 2 -104 30 -18 17 -38 30 -47 30 -8 0 -21 13 -29 28 -8 16 -22
34 -30 41 -12 10 -16 33 -16 92 0 66 3 80 19 88 10 6 24 24 31 40 7 18 19 30
29 29 35 -3 47 3 63 33 17 29 19 30 85 27 62 -3 68 -5 83 -33z m698 -362 c33
-71 34 -144 2 -178 -11 -12 -20 -26 -20 -33 0 -10 -58 -32 -84 -32 -6 0 -27
-12 -48 -26 -33 -23 -52 -27 -153 -34 -126 -9 -154 -20 -180 -70 -15 -28 -14
-31 17 -75 17 -24 40 -47 50 -51 10 -3 25 -20 34 -37 9 -18 22 -39 29 -47 6
-8 23 -44 36 -80 30 -80 33 -225 6 -275 -10 -16 -17 -37 -17 -45 0 -29 -92
-155 -167 -230 l-75 -75 5 -46 c8 -63 -2 -76 -42 -53 -17 10 -34 26 -37 36 -8
25 -33 29 -154 26 -98 -3 -105 -4 -116 -26 -6 -13 -21 -30 -33 -38 -11 -8 -21
-21 -21 -28 0 -7 -9 -21 -20 -31 -11 -10 -22 -27 -26 -39 -3 -11 -14 -29 -23
-39 -9 -10 -21 -37 -26 -60 -10 -39 -14 -43 -55 -53 -38 -10 -47 -9 -57 4 -21
25 -15 93 12 147 13 28 25 58 25 67 0 10 9 22 19 28 11 5 22 18 25 28 4 10 22
26 41 35 26 13 35 23 35 42 0 47 -38 94 -76 95 -12 0 -33 9 -48 21 l-26 20
-25 -28 c-14 -15 -46 -69 -70 -120 -25 -50 -49 -94 -55 -98 -5 -3 -10 -13 -10
-22 0 -9 -9 -27 -21 -39 -18 -19 -21 -37 -24 -149 -3 -118 5 -175 25 -175 4 0
13 -13 20 -30 7 -16 18 -30 26 -30 7 0 29 -16 49 -36 33 -33 39 -35 93 -33 82
2 99 8 106 35 4 14 19 29 39 37 26 11 40 30 70 93 21 43 54 99 72 124 19 25
40 56 47 70 15 28 65 40 79 18 5 -7 9 -43 9 -80 0 -55 -4 -71 -24 -95 -13 -15
-27 -42 -30 -60 -5 -19 -21 -42 -42 -58 -19 -14 -41 -41 -48 -60 -12 -28 -19
-34 -45 -33 -18 1 -44 -9 -65 -25 -19 -15 -39 -27 -44 -27 -4 0 -19 -11 -32
-26 -21 -22 -30 -24 -65 -19 -22 4 -57 18 -77 31 -21 13 -52 24 -70 24 -26 0
-37 6 -50 30 -11 19 -25 30 -39 30 -12 0 -37 17 -58 40 l-37 40 -2 126 c-1
115 1 132 28 212 45 132 75 201 102 230 14 15 42 51 62 79 43 64 46 98 14 226
-18 76 -20 97 -11 145 20 100 39 164 62 202 22 37 68 139 81 178 10 32 11 45
2 54 -20 20 -14 47 11 52 12 3 50 7 84 9 48 2 71 10 104 33 l42 29 220 5 c213
5 219 6 237 28 27 32 111 46 238 37 130 -9 132 -7 132 95 0 88 8 140 22 140 5
0 21 -26 36 -57z m-8162 -68 c3 -8 2 -27 -3 -42 -12 -35 4 -91 35 -130 22 -26
23 -35 19 -124 -4 -91 -6 -99 -38 -140 -18 -24 -35 -45 -35 -47 -1 -2 -23 0
-48 3 -50 8 -58 23 -31 59 12 16 15 58 15 209 0 111 4 196 10 208 13 23 68 26
76 4z m-244 -132 c12 -14 17 -53 20 -175 3 -101 1 -161 -6 -168 -5 -5 -32 -10
-58 -10 -45 0 -49 2 -62 35 -8 19 -22 38 -31 41 -12 5 -15 22 -15 79 0 90 12
125 50 147 17 9 35 29 40 43 11 29 40 33 62 8z m7885 -1250 c3 -10 17 -42 30
-72 22 -46 25 -65 20 -120 -5 -67 -32 -162 -68 -237 -10 -22 -19 -44 -19 -48
0 -16 -75 -96 -101 -107 -16 -6 -31 -19 -34 -29 -7 -21 -34 -30 -93 -30 -32 0
-44 4 -48 18 -3 9 -12 29 -20 45 -19 34 -11 47 27 47 22 0 32 -7 41 -25 6 -14
17 -25 24 -25 17 0 68 68 113 151 11 19 27 41 35 48 9 8 16 23 16 35 0 12 9
38 20 59 16 30 20 56 20 141 0 111 7 166 22 166 5 0 11 -8 15 -17z m-997 -407
c0 -13 -6 -29 -14 -35 -8 -7 -17 -24 -21 -38 -3 -15 -15 -38 -26 -51 -21 -28
-26 -91 -7 -110 7 -7 32 -12 55 -12 38 0 46 -4 61 -30 14 -25 23 -30 54 -30
36 0 45 -5 72 -44 9 -13 26 -20 52 -20 32 -2 41 -7 52 -29 12 -26 27 -33 81
-39 13 -2 29 -12 35 -23 16 -29 27 -35 68 -35 31 0 40 -5 53 -30 27 -52 113
-54 134 -2 35 85 99 129 135 93 19 -19 19 -20 0 -58 -11 -21 -28 -51 -38 -66
-16 -24 -18 -36 -10 -75 8 -44 11 -47 45 -53 20 -3 53 -16 74 -29 l38 -23 16
21 c9 11 32 27 52 35 38 16 49 41 49 114 0 40 17 76 31 68 15 -10 39 -75 39
-109 0 -35 -44 -136 -59 -136 -6 0 -27 -15 -47 -32 -35 -31 -41 -33 -116 -33
l-80 0 -38 45 c-22 25 -44 56 -50 70 -18 44 -78 69 -164 71 -100 2 -110 -6
-103 -86 3 -33 13 -77 21 -97 24 -58 20 -107 -15 -174 -18 -32 -41 -76 -51
-96 -11 -20 -62 -82 -113 -137 -52 -55 -103 -118 -115 -140 -11 -23 -24 -41
-29 -41 -4 0 -12 -9 -17 -19 -5 -10 -30 -35 -57 -55 -56 -43 -113 -48 -162
-16 -30 20 -78 26 -109 14 -11 -4 -16 -19 -16 -44 0 -21 -7 -43 -15 -50 -17
-14 -45 -7 -45 13 0 7 -11 24 -25 37 -14 13 -25 29 -25 35 0 6 -11 22 -25 35
-14 13 -25 28 -25 33 0 6 -7 17 -15 26 -8 9 -32 41 -52 71 -20 30 -42 61 -49
68 -7 6 -15 21 -19 31 -3 11 -12 22 -20 25 -8 3 -15 11 -15 19 0 7 -11 24 -25
37 -14 13 -25 29 -25 35 0 7 -10 20 -21 31 -12 10 -25 28 -29 40 -5 12 -24 25
-49 33 -37 11 -41 15 -41 44 0 18 -8 46 -18 62 -22 36 -34 158 -22 225 13 69
53 170 92 230 80 124 215 251 282 266 17 4 42 15 55 25 28 22 61 25 61 5 0 -7
-11 -21 -25 -30 -14 -9 -25 -25 -25 -35 0 -20 -18 -31 -50 -31 -11 0 -25 -12
-32 -27 -7 -15 -23 -33 -36 -39 -25 -12 -89 -74 -106 -102 -37 -62 -59 -92
-66 -92 -5 0 -12 -10 -15 -22 -4 -13 -16 -33 -27 -45 -18 -19 -20 -37 -22
-155 -1 -128 0 -135 24 -167 43 -57 109 -121 125 -121 8 0 21 -16 29 -35 11
-27 21 -35 40 -35 26 0 56 -23 56 -44 0 -7 11 -18 24 -24 13 -6 27 -20 30 -30
4 -11 19 -22 36 -25 19 -4 35 -17 45 -37 12 -23 22 -30 46 -30 23 0 32 -6 40
-27 12 -32 26 -43 57 -43 12 0 26 -8 29 -17 4 -10 23 -37 42 -60 42 -51 82
-58 103 -19 23 41 67 104 78 111 15 9 12 42 -7 71 -20 32 -7 44 50 44 31 0 40
5 57 33 12 20 30 34 47 37 16 3 33 15 40 30 7 14 20 30 28 37 9 6 21 31 26 55
6 23 17 51 26 60 23 25 24 258 2 285 -8 10 -23 35 -32 56 -9 21 -30 45 -45 54
-16 9 -36 29 -45 45 -11 20 -24 28 -43 28 -16 0 -37 11 -54 30 -28 30 -29 30
-138 30 -108 0 -109 0 -140 -30 -18 -16 -43 -30 -56 -30 -13 0 -33 -8 -43 -17
-32 -29 -113 -129 -113 -140 0 -6 -10 -23 -22 -39 -13 -15 -25 -48 -28 -73 -5
-42 -7 -46 -33 -47 -35 -1 -41 8 -60 81 -12 51 -12 64 -1 87 8 15 14 33 14 41
0 8 9 22 20 32 11 10 20 24 20 31 0 7 9 19 20 27 10 7 24 25 29 39 8 20 18 27
43 30 24 2 36 10 46 31 9 18 21 27 36 27 13 0 31 9 41 20 15 17 17 31 11 89
-7 75 5 98 43 86 22 -7 34 10 46 65 8 37 32 74 79 120 33 32 46 31 46 -4z
m-5871 -366 c35 -6 65 -20 87 -40 19 -16 40 -30 47 -30 18 0 89 -76 131 -140
51 -78 64 -95 107 -143 22 -23 39 -47 39 -53 0 -6 9 -19 21 -30 27 -25 52 -75
73 -145 l16 -56 52 -7 c81 -11 98 -17 98 -35 0 -14 -12 -16 -89 -13 -80 4 -91
2 -110 -17 -17 -17 -21 -33 -21 -89 0 -92 8 -101 95 -104 66 -3 71 -5 83 -31
8 -16 26 -33 40 -39 15 -5 42 -33 61 -61 30 -44 35 -61 35 -112 l1 -60 -32 -3
c-27 -3 -34 2 -48 27 -8 17 -20 31 -25 31 -5 0 -17 14 -25 30 -11 20 -26 33
-46 37 -19 4 -35 16 -45 34 -11 22 -22 29 -45 29 -22 0 -32 6 -39 25 -5 14
-22 31 -37 37 -16 7 -49 34 -75 60 -26 26 -51 48 -56 48 -24 0 -99 -81 -110
-118 -7 -22 -19 -45 -27 -52 -12 -10 -15 -38 -15 -131 0 -72 4 -120 11 -124 5
-4 20 -30 33 -59 13 -29 34 -61 47 -72 13 -10 32 -31 42 -46 10 -16 26 -28 37
-28 10 0 28 -13 39 -29 19 -26 26 -29 113 -35 115 -9 114 -9 218 1 79 7 86 10
98 36 9 18 21 27 37 27 23 0 47 26 91 101 6 11 18 27 26 36 8 10 18 40 22 67
3 27 14 58 23 68 15 17 15 23 4 51 -7 18 -19 61 -27 97 -7 36 -22 82 -33 104
-24 47 -94 122 -120 131 -11 3 -22 19 -26 35 -6 26 -11 30 -40 30 -37 0 -58
19 -49 44 4 11 13 14 33 10 49 -12 138 -68 146 -94 3 -10 19 -24 36 -31 20 -8
38 -27 50 -53 29 -60 63 -122 78 -140 9 -11 12 -54 12 -148 -1 -142 -6 -159
-83 -286 -30 -50 -127 -142 -149 -142 -11 0 -28 -9 -38 -19 -34 -34 -54 -39
-176 -41 -167 -4 -168 -3 -210 30 -21 17 -47 30 -59 30 -21 0 -60 31 -148 118
-21 20 -38 41 -38 46 0 6 -10 20 -21 33 -12 12 -26 46 -32 75 -10 52 -10 68
-7 180 3 106 -13 117 -103 72 -54 -28 -99 -60 -145 -105 -15 -14 -42 -34 -60
-43 -18 -9 -36 -24 -39 -32 -8 -22 -108 -47 -161 -40 -54 8 -102 25 -102 36 0
5 -11 22 -25 39 -23 26 -26 38 -23 92 3 72 20 86 36 31 9 -28 21 -42 47 -55
20 -9 40 -28 45 -42 8 -22 16 -25 56 -25 48 0 84 20 84 46 0 8 11 16 24 20 13
3 36 19 50 35 14 16 31 29 36 29 5 0 16 14 25 30 10 20 23 30 38 30 29 0 40 9
54 43 10 21 19 27 43 27 22 0 33 7 44 29 10 18 26 30 46 34 20 4 34 15 40 31
5 13 18 27 30 31 12 4 25 17 30 29 5 15 20 25 40 29 23 5 34 15 41 37 6 16 14
30 17 31 4 0 17 2 29 3 13 2 24 5 26 7 2 2 11 16 20 31 10 16 27 28 43 30 27
3 30 7 55 63 7 17 15 32 16 35 2 3 -10 14 -27 23 -17 10 -37 32 -46 48 -14 27
-19 30 -63 28 -26 -1 -53 1 -59 5 -8 4 -12 35 -12 82 0 61 -4 78 -20 94 -11
11 -20 24 -20 29 0 5 -10 22 -22 38 -13 15 -28 37 -34 48 -6 11 -24 22 -40 25
-18 3 -33 15 -41 31 -12 25 -18 26 -114 33 -55 4 -133 4 -172 0 -61 -6 -76
-11 -98 -36 -15 -15 -32 -28 -38 -28 -6 0 -21 -14 -33 -31 -13 -17 -38 -37
-55 -44 -18 -8 -33 -20 -33 -28 0 -8 -9 -26 -20 -40 -11 -14 -25 -49 -30 -77
-5 -28 -17 -61 -25 -73 -20 -28 -19 -76 1 -99 10 -10 19 -40 22 -68 3 -32 11
-55 22 -63 9 -7 20 -22 24 -34 4 -13 12 -23 17 -23 5 0 17 -16 26 -35 14 -30
22 -35 50 -35 27 0 44 -10 83 -47 53 -51 53 -73 -1 -73 -26 0 -59 -22 -59 -40
0 -5 -16 -14 -35 -21 -20 -7 -42 -23 -50 -36 -9 -14 -25 -23 -40 -23 -30 0
-33 23 -7 42 10 7 26 34 35 59 17 46 17 46 -7 89 -13 23 -37 51 -52 61 -16 10
-39 38 -51 61 -56 109 -56 105 -51 249 4 120 7 140 28 175 43 73 93 144 101
144 9 0 67 49 111 94 28 28 36 30 156 41 132 13 152 12 241 -5z m1 -312 c27
-29 59 -62 70 -74 28 -30 28 -131 0 -167 -11 -14 -20 -32 -20 -41 0 -17 -37
-46 -61 -46 -9 0 -30 -14 -48 -30 -29 -29 -36 -31 -94 -28 -56 3 -63 6 -74 29
-8 17 -24 29 -43 33 -21 4 -34 14 -41 32 -5 15 -16 32 -23 38 -8 6 -16 30 -20
52 -4 32 -2 47 13 66 11 14 27 43 36 66 13 31 25 44 49 52 18 6 42 24 55 40
20 28 26 30 86 30 l64 0 51 -52z m5970 -54 c0 -6 10 -18 22 -26 21 -14 23 -22
21 -101 -2 -109 -7 -123 -49 -143 -19 -9 -34 -20 -34 -24 0 -5 -7 -16 -16 -24
-12 -12 -37 -16 -104 -16 -83 0 -90 2 -102 24 -7 13 -32 47 -55 76 -50 61 -54
91 -18 140 14 19 25 38 25 42 0 4 17 26 38 48 l39 39 104 3 c105 3 129 -4 129
-38z m-1000 -435 c0 -5 38 -48 85 -95 47 -48 93 -100 101 -115 8 -16 19 -29
24 -29 5 0 12 -9 15 -20 3 -11 13 -27 22 -35 44 -45 44 -245 -1 -245 -8 0 -24
-12 -36 -27 -18 -23 -30 -28 -85 -31 -60 -4 -64 -3 -91 27 -15 17 -33 31 -41
31 -7 0 -19 12 -26 28 -6 15 -20 33 -29 40 -10 7 -18 19 -18 26 0 7 -11 23
-25 36 -14 13 -25 29 -25 35 0 7 -9 20 -20 30 -11 10 -20 27 -20 37 0 11 -10
28 -22 38 -17 14 -20 21 -12 30 9 9 22 3 55 -27 24 -21 45 -41 47 -45 15 -33
121 -161 158 -190 79 -64 124 -43 132 62 4 51 1 63 -19 89 -13 16 -35 46 -49
66 -14 20 -41 57 -61 83 -72 95 -108 189 -83 215 8 8 24 -1 24 -14z m-4564
-325 c4 -16 17 -30 35 -36 15 -5 35 -20 44 -34 8 -13 22 -24 30 -24 7 0 23
-13 34 -29 12 -16 35 -32 51 -36 44 -10 47 -25 12 -55 -18 -15 -32 -31 -32
-38 0 -23 -19 -21 -50 5 -18 14 -48 29 -68 32 -28 5 -42 16 -69 56 -18 28 -43
60 -54 72 -24 26 -19 55 14 91 27 29 45 28 53 -4z m4114 -45 c8 -18 27 -37 47
-47 18 -9 33 -19 33 -24 0 -4 14 -22 30 -40 17 -17 30 -36 30 -42 0 -6 9 -17
20 -24 11 -7 20 -18 20 -26 0 -7 10 -25 23 -39 12 -14 33 -42 47 -63 14 -20
35 -47 47 -60 13 -14 27 -33 33 -44 6 -12 21 -20 35 -20 29 0 75 -20 75 -32 0
-5 17 -16 37 -24 52 -22 112 -11 149 27 21 22 34 28 54 24 28 -6 42 1 57 30 6
10 26 24 45 31 19 6 35 19 37 30 2 10 14 29 27 41 19 17 24 32 24 68 0 51 19
61 38 20 10 -21 19 -25 52 -25 32 0 40 4 40 18 0 28 21 42 62 42 40 0 48 -14
26 -41 -17 -20 -87 -64 -131 -82 -19 -8 -73 -54 -120 -101 -46 -47 -89 -86
-95 -86 -6 0 -28 -15 -48 -32 -36 -32 -41 -33 -136 -36 -122 -5 -162 2 -191
33 -12 13 -33 24 -47 25 -62 5 -67 2 -99 -65 -17 -36 -31 -74 -31 -84 0 -63
-213 -291 -272 -291 -13 0 -41 -12 -63 -27 -36 -25 -50 -28 -147 -31 -106 -4
-108 -4 -154 27 -26 17 -53 31 -59 31 -6 0 -22 11 -34 24 -50 53 -104 41 -121
-27 -7 -23 -16 -59 -21 -79 -5 -21 -14 -38 -18 -38 -5 0 -12 35 -16 77 -5 52
-13 85 -26 102 -15 18 -19 41 -19 100 -1 60 -6 86 -25 126 -20 40 -25 65 -25
129 0 60 -5 90 -21 122 -14 30 -19 58 -17 91 l3 48 35 -3 c35 -2 39 0 110 73
43 44 100 85 117 85 11 0 29 14 42 30 21 30 25 31 89 28 51 -2 67 -7 67 -18 0
-8 -15 -18 -35 -23 -97 -24 -109 -28 -115 -47 -4 -12 -21 -24 -44 -30 -25 -6
-42 -19 -49 -35 -6 -14 -16 -25 -22 -25 -6 0 -18 -15 -26 -32 -8 -18 -21 -42
-29 -53 -13 -18 -11 -24 26 -63 37 -39 74 -62 100 -62 9 0 44 31 119 105 17
17 37 25 60 25 19 0 53 7 77 16 39 15 45 15 83 0 22 -9 54 -16 70 -16 20 0 30
-5 30 -15 0 -17 -30 -35 -60 -35 -12 0 -34 -14 -50 -31 -24 -26 -36 -32 -81
-34 -45 -3 -57 -8 -76 -31 -18 -24 -32 -29 -88 -35 -53 -5 -70 -12 -90 -33
-13 -14 -33 -26 -43 -26 -11 0 -25 -7 -33 -16 -19 -23 -12 -95 12 -120 10 -11
19 -24 19 -30 1 -19 76 -91 102 -97 15 -4 33 -19 40 -35 l13 -27 170 -3 c191
-3 210 -1 218 28 5 20 11 24 60 35 19 4 31 15 38 34 6 16 20 33 33 39 13 5 33
31 45 58 12 26 29 53 37 61 21 21 20 285 0 303 -8 6 -20 27 -26 46 -6 19 -16
34 -21 34 -5 0 -15 12 -22 28 -18 40 -87 101 -129 114 -41 12 -40 11 -43 50
-2 23 4 29 36 42 20 8 40 20 44 26 11 18 22 11 35 -21z m-3212 -65 c1 -10 -4
-28 -13 -39 -8 -11 -31 -45 -51 -75 -21 -30 -43 -59 -51 -63 -7 -4 -13 -14
-13 -21 0 -7 -11 -23 -25 -36 -14 -13 -25 -28 -25 -33 0 -9 -27 -46 -67 -94
-13 -14 -23 -32 -23 -39 0 -7 -9 -18 -20 -24 -11 -6 -22 -21 -26 -35 -3 -13
-12 -26 -20 -29 -8 -3 -19 -16 -24 -28 -6 -13 -26 -43 -45 -68 -19 -25 -40
-54 -45 -65 -6 -11 -24 -38 -41 -60 -16 -22 -39 -54 -50 -72 -11 -17 -26 -34
-34 -37 -18 -7 -20 -42 -3 -52 7 -4 35 -9 62 -11 38 -2 55 -9 71 -27 11 -13
30 -27 42 -31 19 -5 27 0 44 29 12 20 25 36 29 36 5 0 15 11 22 24 11 20 29
46 88 131 8 11 26 38 38 58 13 20 27 37 32 37 4 0 13 14 20 30 7 17 16 30 21
30 5 0 15 12 22 28 6 15 20 33 29 40 10 7 18 19 18 26 0 7 11 23 24 35 13 13
27 34 30 47 4 13 13 24 21 24 7 0 17 9 20 21 4 11 12 18 18 16 15 -5 14 -145
-1 -173 -7 -14 -7 -70 0 -189 6 -94 11 -211 12 -261 2 -91 2 -92 41 -137 42
-48 54 -52 148 -48 26 1 40 6 44 19 3 9 15 27 26 39 11 12 25 31 31 41 38 63
59 91 71 96 8 3 15 14 15 26 0 11 9 25 20 32 11 7 20 18 20 25 0 7 11 24 25
39 14 15 25 33 25 40 0 7 9 18 20 24 11 6 20 17 20 24 0 7 9 24 20 37 48 56
80 103 80 116 0 8 6 13 13 11 9 -4 13 -90 17 -371 3 -242 9 -370 16 -377 6 -6
44 -13 85 -16 40 -3 77 -8 81 -10 13 -8 9 -82 -4 -87 -7 -2 -29 4 -48 13 -19
10 -51 20 -71 24 -20 4 -48 19 -65 37 l-29 30 -5 220 c-6 230 -8 238 -51 239
-23 0 -113 -99 -186 -205 -67 -97 -101 -122 -177 -130 -84 -9 -173 2 -192 23
-73 84 -85 135 -77 313 5 125 -9 191 -42 197 -22 5 -96 -66 -142 -138 -74
-113 -84 -127 -116 -158 -29 -28 -43 -34 -98 -38 -82 -8 -145 9 -186 49 -31
29 -33 35 -33 104 0 64 3 77 30 115 17 24 38 54 47 68 9 14 36 48 60 77 24 28
43 55 43 61 0 5 9 17 20 27 11 10 20 22 20 27 0 6 9 22 21 36 11 15 31 43 44
62 13 19 50 73 82 119 32 46 65 93 73 106 24 36 54 75 72 95 9 10 22 28 28 40
11 21 47 41 65 36 6 -1 11 -11 13 -22z m338 -81 c29 -38 29 -39 32 -198 1 -88
5 -170 8 -183 5 -23 5 -22 45 10 22 18 71 74 109 123 124 161 118 156 191 155
35 0 87 -1 114 -1 51 1 105 -15 105 -30 0 -26 -93 -38 -156 -20 -51 15 -82 3
-106 -40 -12 -22 -25 -39 -30 -39 -4 0 -8 -6 -8 -14 0 -7 -14 -31 -30 -52 -42
-54 -56 -73 -90 -119 -33 -45 -54 -71 -111 -133 -21 -24 -42 -58 -47 -75 -10
-38 -59 -69 -73 -46 -12 20 -15 672 -2 691 9 15 21 8 49 -29z m1925 -126 c-5
-5 -36 -12 -68 -16 l-58 -6 -3 -58 c-2 -44 1 -64 16 -85 15 -21 20 -49 24
-129 3 -78 8 -106 21 -121 29 -32 22 -66 -32 -171 -4 -8 -20 -18 -35 -22 -16
-5 -35 -17 -42 -28 -8 -11 -30 -23 -49 -27 -20 -3 -38 -11 -41 -16 -10 -16 -4
-148 7 -169 18 -35 139 -21 139 16 0 8 15 18 33 23 17 4 37 18 43 30 18 37 24
38 48 7 21 -26 29 -29 114 -35 51 -4 95 -10 99 -13 18 -18 -25 -32 -120 -38
-101 -6 -137 -14 -137 -29 0 -4 -15 -15 -34 -24 -38 -18 -185 -22 -216 -6 -28
15 -60 86 -60 133 0 23 8 56 18 72 10 17 22 42 25 57 5 17 20 34 40 44 85 43
113 114 98 243 -5 47 -13 132 -16 189 -5 88 -3 108 14 147 19 43 25 47 86 58
32 5 98 -14 86 -26z m-1271 -46 c0 -5 11 -23 25 -40 l26 -30 2 -514 c2 -557 3
-550 -51 -541 -15 3 -28 7 -30 9 -2 2 -5 1046 -2 1113 0 14 30 17 30 3z m367
-2 c33 -12 21 -22 -38 -33 -29 -5 -39 -13 -50 -39 -7 -17 -19 -40 -27 -49 -14
-17 -10 -64 9 -98 5 -8 13 -27 19 -43 13 -37 51 -50 135 -44 52 3 72 9 80 22
5 10 20 30 33 45 31 39 30 104 -3 163 -23 40 -30 46 -70 52 -60 8 -48 25 18
25 49 0 54 -3 87 -42 28 -35 36 -53 41 -105 3 -34 3 -80 -1 -101 -9 -50 -55
-111 -89 -118 -14 -2 -43 -14 -63 -24 -46 -25 -58 -25 -100 -1 -18 10 -47 22
-64 26 -49 10 -87 74 -92 156 -3 57 0 73 22 115 14 27 26 56 26 64 0 38 65 53
127 29z m1805 -196 c10 -12 8 -18 -8 -31 -11 -10 -37 -42 -58 -73 -37 -55 -39
-56 -94 -62 -78 -8 -180 3 -186 20 -3 7 6 23 19 35 14 12 25 28 25 35 0 17 48
36 74 29 37 -10 76 6 92 36 14 27 18 28 69 27 34 -1 60 -8 67 -16z"/>
<path d="M9384 15528 c-13 -21 -33 -57 -45 -81 l-20 -42 29 -55 29 -55 91 -3
c90 -3 93 -2 118 25 39 42 51 74 46 120 -3 35 -10 46 -38 62 -18 11 -36 31
-40 45 -5 23 -9 24 -76 23 -70 -1 -70 -1 -94 -39z"/>
<path d="M6383 15550 c-18 -6 -37 -19 -43 -30 -6 -11 -26 -22 -46 -26 -26 -5
-41 -15 -53 -35 -9 -16 -25 -32 -35 -35 -10 -4 -36 -25 -57 -47 -29 -31 -39
-53 -44 -89 -5 -33 -13 -52 -26 -59 -16 -8 -19 -21 -19 -92 0 -70 3 -85 20
-100 13 -11 20 -29 20 -54 0 -25 10 -53 30 -82 17 -24 30 -48 30 -53 0 -4 6
-8 13 -8 8 0 26 -13 40 -30 22 -24 35 -30 67 -30 33 0 42 -4 52 -25 16 -36 73
-48 188 -41 90 5 96 7 120 36 22 27 31 30 77 30 48 0 54 2 68 30 12 23 22 30
45 30 20 0 33 7 41 23 6 12 20 32 31 44 28 30 18 61 -33 101 -55 42 -108 44
-138 6 -11 -14 -35 -29 -53 -34 -19 -6 -37 -19 -43 -32 -9 -21 -17 -23 -112
-26 -101 -3 -102 -2 -119 24 -10 14 -28 30 -41 35 -18 6 -23 15 -21 32 3 21 7
22 69 19 71 -4 99 5 136 45 19 20 31 23 95 23 69 0 74 1 98 30 23 28 31 31 90
33 36 2 71 6 78 11 18 11 14 37 -8 66 -11 14 -20 36 -20 50 0 41 -61 130 -93
137 -15 3 -37 19 -48 34 -15 21 -29 29 -50 29 -22 0 -32 7 -41 24 -6 14 -18
28 -27 31 -29 11 -206 15 -238 5z m234 -239 c35 -60 27 -71 -52 -71 -72 0 -91
-7 -131 -46 -23 -24 -30 -26 -77 -20 -29 4 -56 11 -60 15 -15 14 4 60 37 89
17 15 36 38 42 52 11 24 14 25 114 24 l102 -1 25 -42z"/>
<path d="M5580 15233 c-8 -3 -27 -17 -42 -31 -15 -14 -44 -28 -65 -31 -28 -5
-41 -13 -51 -34 -7 -15 -17 -27 -21 -27 -17 0 -61 -54 -61 -74 0 -12 -6 -31
-14 -41 -13 -19 -15 -18 -36 18 -30 51 -69 52 -99 2 -14 -25 -27 -35 -45 -35
-40 0 -78 -21 -70 -39 3 -9 11 -29 16 -46 6 -16 21 -41 34 -55 12 -14 26 -42
29 -63 4 -20 11 -40 16 -43 5 -3 16 -20 24 -37 14 -29 42 -73 80 -122 8 -10
15 -24 15 -30 0 -5 12 -32 25 -60 14 -27 25 -55 25 -61 0 -6 9 -19 20 -29 11
-10 20 -23 20 -30 0 -7 9 -20 20 -30 11 -10 20 -22 20 -28 0 -5 11 -22 25 -39
14 -16 25 -35 25 -42 0 -12 32 -77 84 -171 19 -34 28 -40 61 -43 53 -5 80 4
91 29 6 12 26 27 44 33 43 14 51 51 21 96 -51 74 -58 87 -69 119 -7 19 -19 43
-28 52 -25 28 -11 49 34 49 70 0 101 11 119 41 12 21 26 29 52 31 26 2 38 10
51 33 9 16 27 32 40 35 17 4 34 24 57 70 32 64 33 67 33 206 0 126 -2 144 -20
167 -11 14 -20 29 -20 35 0 5 -10 21 -22 35 -13 14 -34 42 -48 62 -40 59 -49
65 -91 65 -28 0 -47 7 -62 23 -13 12 -35 28 -50 35 -28 12 -138 15 -167 5z
m112 -233 c13 -23 24 -30 48 -30 24 0 33 -6 40 -26 6 -14 19 -33 29 -43 15
-12 20 -32 22 -86 4 -108 1 -133 -20 -152 -10 -10 -22 -28 -25 -40 -7 -21 -14
-22 -122 -25 -116 -3 -144 2 -144 26 0 7 -11 23 -25 36 -14 13 -25 28 -25 35
0 6 -9 18 -20 28 -17 14 -20 29 -20 97 0 63 3 82 15 87 9 3 22 18 31 34 11 22
22 29 44 29 21 0 36 8 52 30 18 25 29 30 62 30 35 0 44 -5 58 -30z"/>
<path d="M5567 14858 c-45 -56 -55 -99 -29 -135 10 -16 21 -35 25 -44 3 -9 21
-19 42 -22 90 -15 135 22 135 110 0 46 -5 60 -32 94 -26 33 -37 39 -69 39 -32
0 -43 -6 -72 -42z"/>
<path d="M4810 14653 c-8 -3 -27 -16 -42 -28 -14 -12 -44 -25 -67 -29 -36 -5
-67 -26 -119 -78 -44 -45 -84 -96 -98 -127 -9 -20 -25 -47 -35 -60 -16 -20
-19 -42 -19 -160 0 -132 1 -137 25 -160 14 -13 25 -29 25 -36 0 -8 8 -20 19
-27 10 -7 21 -23 25 -35 4 -13 12 -24 17 -24 5 -1 14 -3 19 -4 6 -1 16 -3 24
-4 7 0 19 -14 26 -31 12 -29 15 -30 74 -30 49 0 69 -5 98 -25 20 -14 45 -25
54 -25 9 0 27 11 40 25 19 21 32 25 78 25 45 0 58 4 73 24 10 13 33 31 51 40
17 9 36 24 41 34 5 10 21 24 35 32 29 15 80 98 90 147 4 17 16 41 27 54 27 31
27 136 0 170 -10 13 -21 41 -25 62 -11 58 -59 141 -84 145 -11 2 -32 18 -46
36 -18 25 -33 33 -57 34 -20 0 -39 9 -48 20 -9 11 -26 25 -38 31 -22 11 -136
14 -163 4z m69 -227 c10 -24 30 -36 61 -36 11 0 25 -10 31 -22 7 -13 29 -44
50 -69 36 -43 39 -52 39 -108 0 -56 -3 -64 -43 -113 l-43 -53 -106 -3 c-101
-3 -108 -1 -130 21 -13 13 -35 31 -50 40 -16 10 -28 24 -28 33 0 8 -9 27 -20
42 -26 35 -29 93 -6 118 10 10 31 40 47 66 24 37 38 49 64 54 20 3 41 16 50
30 21 33 72 33 84 0z"/>
<path d="M4810 14281 c-24 -12 -39 -30 -49 -58 -16 -45 -11 -78 20 -117 19
-24 27 -27 72 -24 48 3 53 6 80 46 l29 43 -19 47 c-12 28 -30 53 -49 63 -38
23 -43 23 -84 0z"/>
<path d="M3555 10940 c-11 -4 -28 -17 -37 -28 -10 -13 -35 -23 -64 -28 -37 -5
-50 -12 -63 -35 -9 -16 -24 -32 -33 -35 -10 -3 -18 -9 -18 -13 0 -4 -11 -21
-24 -36 -13 -15 -36 -52 -51 -81 -15 -29 -33 -58 -41 -65 -8 -6 -14 -29 -14
-52 0 -23 -9 -54 -22 -75 -30 -49 -30 -165 1 -193 17 -16 21 -32 21 -77 0 -38
6 -67 18 -87 11 -17 21 -52 24 -78 3 -28 14 -57 26 -70 15 -16 21 -40 24 -89
6 -101 34 -118 180 -110 19 2 31 10 40 30 13 26 16 27 112 32 72 4 101 9 104
19 2 7 14 23 25 34 17 17 28 19 81 13 76 -7 113 2 129 34 12 23 19 25 92 28
75 2 82 4 105 32 21 25 34 31 85 35 83 8 107 32 65 68 -14 12 -20 29 -20 61 0
28 -7 52 -19 68 -12 14 -22 49 -26 84 -4 32 -16 73 -26 90 -10 17 -19 50 -19
72 0 29 -7 49 -25 70 -14 17 -25 34 -25 38 1 25 -67 144 -87 153 -12 5 -30 23
-40 38 -10 15 -26 36 -35 45 -10 10 -18 24 -18 32 0 9 -17 16 -49 21 -35 5
-59 15 -80 36 -31 29 -31 29 -153 28 -68 0 -132 -4 -143 -9z m279 -261 c13 -6
27 -20 29 -30 3 -11 19 -24 36 -30 17 -6 31 -17 31 -24 0 -6 11 -24 25 -39 14
-15 25 -33 25 -40 0 -7 9 -21 20 -31 14 -12 20 -31 20 -57 0 -38 14 -77 31
-88 11 -7 15 -73 5 -88 -4 -7 -14 -12 -22 -12 -8 0 -28 -13 -46 -30 -29 -28
-36 -30 -109 -30 -72 0 -81 -2 -111 -29 -27 -23 -45 -29 -102 -34 -49 -3 -76
-11 -95 -26 -45 -37 -69 -45 -99 -35 -25 9 -27 14 -32 81 -4 53 -10 79 -25 95
-18 20 -20 37 -19 138 l1 115 44 62 c33 47 53 65 80 73 22 6 40 19 47 35 11
23 15 24 124 28 62 1 114 4 115 5 1 1 13 -3 27 -9z"/>
<path d="M3675 10584 c-5 -2 -35 -10 -65 -18 -47 -14 -59 -23 -87 -64 -41 -61
-66 -154 -53 -202 5 -19 12 -52 15 -73 7 -47 30 -57 123 -57 65 0 82 6 134 42
13 10 52 21 87 24 60 7 63 8 88 51 30 51 27 97 -9 160 -43 74 -78 110 -120
123 -43 12 -95 19 -113 14z"/>
<path d="M11173 12093 c-32 -6 -83 -86 -83 -130 0 -32 7 -45 61 -110 22 -27
67 -15 114 31 40 40 45 50 45 91 0 69 -21 111 -60 119 -34 6 -40 6 -77 -1z"/>
<path d="M11040 11425 c-23 -19 -46 -35 -50 -35 -12 0 -90 -83 -90 -96 0 -6
-11 -20 -25 -32 -18 -16 -25 -32 -25 -59 0 -23 -7 -45 -20 -58 -18 -19 -21
-37 -24 -159 -1 -85 1 -143 8 -155 6 -10 21 -36 33 -57 12 -22 34 -47 48 -58
26 -18 27 -18 41 2 7 11 26 23 41 27 15 3 34 11 40 17 20 17 16 92 -7 121 -16
20 -20 40 -20 95 0 59 4 73 25 98 14 16 25 36 25 44 1 24 36 60 70 71 26 10
33 9 46 -7 19 -24 11 -116 -16 -176 -25 -58 -33 -364 -10 -378 8 -6 70 -10
137 -10 l122 0 21 30 c12 17 29 30 39 30 23 0 118 112 126 149 3 16 15 37 26
47 17 15 19 31 19 159 0 128 -2 144 -20 165 -11 13 -20 29 -20 37 0 7 -9 21
-20 30 -11 10 -20 27 -20 39 0 12 -11 29 -25 38 -14 9 -25 25 -25 36 0 11 -6
20 -14 20 -7 0 -30 14 -51 30 l-38 30 -152 0 -153 0 -42 -35z m350 -257 c0 -6
11 -23 24 -38 18 -23 23 -40 24 -92 1 -34 -2 -81 -6 -102 -6 -34 -12 -41 -38
-48 -22 -5 -36 -17 -44 -38 -10 -23 -19 -30 -40 -30 -15 0 -33 7 -40 15 -17
21 -8 110 15 135 13 14 19 41 22 97 6 108 9 121 36 125 23 4 47 -8 47 -24z"/>
<path d="M4424 9210 c-30 -12 -74 -92 -74 -134 0 -28 6 -39 28 -53 15 -9 39
-28 54 -41 35 -32 63 -24 106 28 37 45 47 111 24 167 -18 41 -81 56 -138 33z"/>
<path d="M10390 9168 c-52 -57 -67 -110 -45 -165 17 -43 34 -53 93 -53 46 0
71 16 88 55 24 59 18 109 -18 152 -58 67 -65 68 -118 11z"/>
</g>
</svg>
